<svg xmlns="http://www.w3.org/2000/svg" width="12.917" height="10.839" viewBox="0 0 12.917 10.839">
  <g id="noun_box" transform="translate(-6.25 -13.29)">
    <g id="Group" transform="translate(6.25 13.29)">
      <path id="Compound_Path" data-name="Compound Path" d="M19.167,14.323a1.033,1.033,0,0,0-1.033-1.033H7.283A1.033,1.033,0,0,0,6.25,14.323v1.243A1.033,1.033,0,0,0,7.283,16.6h.148v5.758A1.772,1.772,0,0,0,9.2,24.129h7.012a1.772,1.772,0,0,0,1.772-1.772V16.6h.148a1.033,1.033,0,0,0,1.033-1.033ZM17.1,22.357a.886.886,0,0,1-.886.886H9.2a.886.886,0,0,1-.886-.886V16.6H17.1Zm1.181-6.791a.148.148,0,0,1-.148.148H7.283a.148.148,0,0,1-.148-.148V14.323a.148.148,0,0,1,.148-.148H18.134a.148.148,0,0,1,.148.148Z" transform="translate(-6.25 -13.29)" fill="#989898"/>
      <path id="Compound_Path-2" data-name="Compound Path" d="M34.888,44.566H37.41a1.138,1.138,0,0,0,0-2.276H34.888a1.138,1.138,0,0,0,0,2.276Zm0-1.391H37.41a.252.252,0,0,1,0,.5H34.888a.252.252,0,1,1,0-.5Z" transform="translate(-29.69 -38.009)" fill="#989898"/>
    </g>
  </g>
</svg>
