<svg id="card" xmlns="http://www.w3.org/2000/svg" width="23.308" height="18.821" viewBox="0 0 23.308 18.821">
  <path id="Path_22398" data-name="Path 22398" d="M3.022,0H20.286c1.664,0,3.022,1.731,3.022,3.851V14.97c0,2.121-1.358,3.851-3.022,3.851H3.022C1.358,18.821,0,17.09,0,14.97V3.851C0,1.731,1.358,0,3.022,0Zm.512,9.572H9.291V11.5H3.534V9.572Zm0,3.25H7.091v1.932H3.534ZM1.592,5.07H21.716V3.851a1.67,1.67,0,0,0-1.43-1.823H3.022a1.67,1.67,0,0,0-1.43,1.823V5.07ZM21.716,7.754H1.592V14.97a1.67,1.67,0,0,0,1.43,1.823H20.286a1.67,1.67,0,0,0,1.43-1.823V7.754Z" transform="translate(0 0)" fill="#90c73e"/>
</svg>
