<svg xmlns="http://www.w3.org/2000/svg" width="19.082" height="17.814" viewBox="0 0 19.082 17.814">
  <g id="coupon" transform="translate(0 -17.01)">
    <path id="Path_30145" data-name="Path 30145" d="M107.776,222.991a.868.868,0,1,0,.644.839A.771.771,0,0,0,107.776,222.991Z" transform="translate(-103.14 -198.305)" fill="#90c73e"/>
    <path id="Path_30146" data-name="Path 30146" d="M259.14,341.981a.868.868,0,1,0,.644.839A.771.771,0,0,0,259.14,341.981Z" transform="translate(-248.863 -312.86)" fill="#90c73e"/>
    <path id="Path_30147" data-name="Path 30147" d="M13.933,22.327C8.265,17.112,8.555,17.311,8.1,17.136a1.86,1.86,0,0,0-1.929.363L.928,22.327A2.885,2.885,0,0,0,0,24.446V33a1.825,1.825,0,0,0,1.818,1.827H13.043A1.825,1.825,0,0,0,14.861,33v-8.55a2.886,2.886,0,0,0-.928-2.119ZM6.89,20.494a.559.559,0,1,1,.447.6.559.559,0,0,1-.447-.6ZM2.875,25.525a1.869,1.869,0,0,1,1.761-1.957,1.968,1.968,0,0,1,0,3.914,1.869,1.869,0,0,1-1.761-1.957Zm3.2,5.95a.56.56,0,0,1-.515-.776l2.721-6.486a.559.559,0,1,1,1.031.433L6.6,31.132A.559.559,0,0,1,6.079,31.475Zm4.2.441a1.968,1.968,0,0,1,0-3.914,1.968,1.968,0,0,1,0,3.914Z" fill="#90c73e"/>
    <path id="Path_30148" data-name="Path 30148" d="M291.913,46.587c-1.82-5.3-2.831-8.245-2.846-8.278a2.855,2.855,0,0,0-1.686-1.563c-.043-.015.212.047-3.842-.915l4.122,3.793a4.006,4.006,0,0,1,1.29,2.942v7.245l2.011-.861a1.815,1.815,0,0,0,.951-2.364Z" transform="translate(-272.972 -18.12)" fill="#90c73e"/>
  </g>
</svg>
